# xmcd
#
# Track frame offsets:
#	150
#	16163
#	34633
#	52673
#	68468
#	83922
#	105351
#	125054
#	141701
#	162089
#
# Disc length: 2315 seconds
#
# Revision: 0
# Processed by: cddbd v1.5.2PL0 Copyright (c) Steve Scherf et al.
# Submitted via: audiograbber 1.83.01
#
DISCID=7609090a
DTITLE=Jimmy Ruggiere - A Heartache Couldnt Happen To A Vicer Gay
DYEAR=2015
DGENRE=
TTITLE0=Baby, I´m Wise To You
TTITLE1=I Cried All The Way To Ford Worth
TTITLE2=Going Home To Say Goodbye To Dad
TTITLE3=I´ll Take The Ride
TTITLE4=A Heartache Couldnt Happen To A Vicer Gay
TTITLE5=The Livin End
TTITLE6=There´s One Too Many Pretty Girls In Tucson
TTITLE7=It Hurts So Bad I Want To Wake UpStoned
TTITLE8=Sunday´s Broken
TTITLE9=Ninetty Miles To Nashville
EXTD=
EXTT0=
EXTT1=
EXTT2=
EXTT3=
EXTT4=
EXTT5=
EXTT6=
EXTT7=
EXTT8=
EXTT9=
PLAYORDER=
